<?xml version="1.0" standalone="no"?><!DOCTYPE svg PUBLIC "-//W3C//DTD SVG 1.1//EN" "http://www.w3.org/Graphics/SVG/1.1/DTD/svg11.dtd"><svg t="1664193651854" class="icon" viewBox="0 0 1024 1024" version="1.1" xmlns="http://www.w3.org/2000/svg" p-id="656" xmlns:xlink="http://www.w3.org/1999/xlink" width="200" height="200"><path d="M763.25 962c0-120.29-127.9-217.83-248.07-218.31C395 744.17 261 841.71 261 962z" fill="#5858AF" p-id="657"></path><path d="M509 743.8c-37.37 1.17-75.83 11.53-111 28.89l67.14 62c25.78 23.81 68 23.81 93.74 0l68.79-63.56c-33.62-16.5-70.45-26.31-106.78-27.39h-5.63q-3.11-0.03-6.26 0.06z" fill="#EA9A3B" p-id="658"></path><path d="M594.9 757.57a250.74 250.74 0 0 0-79.72-13.88c-28 0.11-56.82 5.51-84.49 15.24l38.12 38.12a61.42 61.42 0 0 0 86.61 0zM689.54 444.94c-21.82 31.78-19.48 71.31 5.24 88.28s62.45 5 84.27-26.83 19.48-71.32-5.24-88.29-62.45-4.95-84.27 26.84z" fill="#FFD1CA" p-id="659"></path><path d="M727.48 516.87a6 6 0 0 1-6-5.34c-3.47-31.48 12.93-46.45 20.14-51.43 8.14-5.61 20.22-9.6 28.85-5.84a6 6 0 0 1-4.79 11c-3.14-1.37-10.45 0-17.25 4.71-5.43 3.75-17.78 15.18-15 40.23a6 6 0 0 1-5.31 6.62 4.87 4.87 0 0 1-0.64 0.05z" fill="#FFBAB3" p-id="660"></path><path d="M334.69 444.94c21.82 31.78 19.47 71.31-5.25 88.28s-62.45 5-84.27-26.83-19.47-71.32 5.25-88.29 62.44-4.95 84.27 26.84z" fill="#FFD1CA" p-id="661"></path><path d="M296.75 516.87a5 5 0 0 1-0.67 0 6 6 0 0 1-5.31-6.62c2.77-25-9.58-36.48-15-40.23-6.8-4.69-14.11-6.08-17.24-4.71a6 6 0 0 1-4.79-11c8.63-3.76 20.7 0.23 28.85 5.84 7.21 5 23.6 19.95 20.13 51.43a6 6 0 0 1-5.97 5.29z" fill="#FFBAB3" p-id="662"></path><path d="M568.62 755.92l-44.88 32.93a12.86 12.86 0 0 1-20.55 0.27l-47.58-33.2V646.83h113z" fill="#FFD1CA" p-id="663"></path><path d="M734.6 495c0 122.87-99.62 222.48-222.49 222.48S289.63 617.87 289.63 495V367.84c0-122.87 99.61-222.49 222.48-222.49C635 145.35 734.6 245 734.6 367.84z" fill="#FFE6E1" p-id="664"></path><path d="M507.69 570h-1.29c-16.07-0.68-26.22-14-27.33-15.54l-1.91-2.63v-131.1a10 10 0 0 1 20 0V544.8c2.33 2.26 6.13 5.07 10.16 5.21s8.6-2.55 13.31-8a10 10 0 1 1 15.12 13.09c-8.56 9.9-18 14.9-28.06 14.9z" fill="#F47A8F" p-id="665"></path><path d="M597.32 438.32c0 17.54 12.52 31.76 27.95 31.76s27.94-14.22 27.94-31.76-12.51-31.75-27.94-31.75-27.95 14.22-27.95 31.75zM355.16 438.32c0 17.54 12.51 31.76 27.95 31.76s27.94-14.22 27.94-31.76-12.51-31.75-27.94-31.75-27.95 14.22-27.95 31.75zM413.21 382.35h-0.09l-60.07-0.87a6 6 0 1 1 0.18-12l60.06 0.86a6 6 0 0 1-0.08 12zM655.11 382.35H655l-60-0.87a6 6 0 0 1 0.17-12l60.07 0.86a6 6 0 0 1-0.08 12z" fill="#31296B" p-id="666"></path><path d="M546.19 628.59H546l-74-1.07a10 10 0 0 1 0.14-20h0.15l74 1.07a10 10 0 0 1-0.14 20z" fill="#E83F63" p-id="667"></path><path d="M524.13 101.08c-160.17 0-218.89 82.09-238.42 177.7C274.86 331.9 274 413.47 293.68 464c0 0 2.11-47.2 26.08-81.41 0 0-6.2-113.32 76.56-151.27 36.7-16.82 73.49 8.49 110.4 12.48 40.79 4.4 80.62-30.7 120.35-12.49 82.78 37.95 76.58 151.28 76.58 151.28 28.12 22.9 31.74 78.63 31.75 78.58 32.71-137.9 5.96-360.1-211.27-360.09z" fill="#6C7FBA" p-id="668"></path><path d="M752.94 371.27c0-174.43-82.59-282.09-229.71-282.09s-250.42 77.19-250.42 282.09z" fill="#EA9A3B" p-id="669"></path><path d="M739.9 250.07c0.74 2.25-455.28-0.14-455.28-0.14 11.31-38.83 14.09-37.83 20.58-54.17l415.64 2.4s17.54 47.29 19.06 51.91z" fill="#EDF2F4" p-id="670"></path><path d="M585.59 225.55a76.85 76.85 0 1 1-76.85-76.84 76.86 76.86 0 0 1 76.85 76.84" fill="#FFC440" p-id="671"></path><path d="M560.82 225.55a52.08 52.08 0 1 1-52.07-52.07 52.07 52.07 0 0 1 52.07 52.07" fill="#EDF2F4" p-id="672"></path><path d="M245.72 315.57m26.85 0l480.61 0q26.85 0 26.85 26.85l0 2.83q0 26.85-26.85 26.85l-480.61 0q-26.85 0-26.85-26.85l0-2.83q0-26.85 26.85-26.85Z" fill="#FFC440" p-id="673"></path></svg>